<svg width="38" height="32" viewBox="0 0 38 32" fill="none" xmlns="http://www.w3.org/2000/svg">
<path d="M3.83333 14.5H31.1667V7.66665H3.83333V14.5ZM29.4583 31.5833V26.4583H24.3333V23.0416H29.4583V17.9166H32.875V23.0416H38V26.4583H32.875V31.5833H29.4583ZM3.83333 28.1666C2.89375 28.1666 2.08969 27.8324 1.42116 27.1639C0.752636 26.4953 0.417803 25.6907 0.416664 24.75V4.24998C0.416664 3.3104 0.751498 2.50634 1.42116 1.83781C2.09083 1.16928 2.89489 0.834452 3.83333 0.833313H31.1667C32.1062 0.833313 32.9109 1.16815 33.5805 1.83781C34.2502 2.50748 34.5845 3.31154 34.5833 4.24998V14.5H29.4583C27.0951 14.5 25.081 15.3331 23.416 16.9993C21.7509 18.6655 20.9178 20.6796 20.9167 23.0416V28.1666H3.83333Z" fill="#E0FFF2"/>
</svg>
