<svg width="41" height="41" viewBox="0 0 41 41" fill="none" xmlns="http://www.w3.org/2000/svg">
<path d="M41 20.4612C41.0209 31.756 31.8097 40.992 20.5149 40.9999C15.6366 41.0034 11.1557 39.3029 7.63443 36.4609C6.71879 35.7219 6.65034 34.3496 7.48241 33.5176L8.41376 32.5862C9.12539 31.8746 10.2615 31.7967 11.0499 32.4222C13.6442 34.4809 16.9274 35.7096 20.5 35.7096C28.907 35.7096 35.7096 28.9057 35.7096 20.5C35.7096 12.0929 28.9057 5.29032 20.5 5.29032C16.465 5.29032 12.8002 6.85832 10.079 9.41776L14.2744 13.6131C15.1077 14.4464 14.5175 15.871 13.3393 15.871H1.32258C0.592102 15.871 0 15.2789 0 14.5484V2.53167C0 1.35341 1.42458 0.763294 2.25781 1.59644L6.33896 5.67759C10.0193 2.16043 15.0073 0 20.5 0C31.8089 0 40.979 9.15721 41 20.4612ZM26.0456 26.9736L26.8575 25.9296C27.5302 25.0647 27.3744 23.8183 26.5095 23.1456L23.1451 20.5288V11.9032C23.1451 10.8075 22.2569 9.91935 21.1613 9.91935H19.8387C18.743 9.91935 17.8548 10.8075 17.8548 11.9032V23.1163L23.2616 27.3216C24.1265 27.9942 25.3729 27.8385 26.0456 26.9736Z" fill="#E0FFF2"/>
</svg>
