<svg width="20" height="20" viewBox="0 0 20 20" fill="none" xmlns="http://www.w3.org/2000/svg">
<path d="M20 18.4375V7.8125C20 7.61844 19.9548 7.42705 19.868 7.25348C19.7812 7.07992 19.6552 6.92893 19.5 6.8125L10.75 0.25C10.5336 0.0877221 10.2705 0 10 0C9.72954 0 9.46637 0.0877221 9.25 0.25L0.5 6.8125C0.344755 6.92893 0.218751 7.07992 0.131966 7.25348C0.0451812 7.42705 0 7.61844 0 7.8125V18.4375C0 18.769 0.131696 19.087 0.366117 19.3214C0.600537 19.5558 0.918479 19.6875 1.25 19.6875H6.25C6.58152 19.6875 6.89946 19.5558 7.13388 19.3214C7.3683 19.087 7.5 18.769 7.5 18.4375V14.6875C7.5 14.356 7.6317 14.038 7.86612 13.8036C8.10054 13.5692 8.41848 13.4375 8.75 13.4375H11.25C11.5815 13.4375 11.8995 13.5692 12.1339 13.8036C12.3683 14.038 12.5 14.356 12.5 14.6875V18.4375C12.5 18.769 12.6317 19.087 12.8661 19.3214C13.1005 19.5558 13.4185 19.6875 13.75 19.6875H18.75C19.0815 19.6875 19.3995 19.5558 19.6339 19.3214C19.8683 19.087 20 18.769 20 18.4375Z" fill="#E0FFF2"/>
</svg>
