<svg width="30" height="30" viewBox="0 0 30 30" fill="none" xmlns="http://www.w3.org/2000/svg">
<path d="M28.1323 16.2433C27.9035 18.7198 26.974 21.0799 25.4528 23.0475C23.9316 25.015 21.8814 26.5087 19.5423 27.3536C17.2031 28.1985 14.6717 28.3597 12.2443 27.8185C9.81684 27.2772 7.59375 26.0558 5.83513 24.2972C4.07651 22.5386 2.85511 20.3155 2.31385 17.888C1.77259 15.4606 1.93385 12.9292 2.77876 10.5901C3.62368 8.25092 5.1173 6.20078 7.08486 4.67953C9.05241 3.15829 11.4125 2.22886 13.889 2C12.4391 3.96157 11.7414 6.3784 11.9228 8.81091C12.1042 11.2434 13.1527 13.53 14.8775 15.2549C16.6023 16.9797 18.8889 18.0281 21.3214 18.2095C23.7539 18.3909 26.1708 17.6932 28.1323 16.2433Z" stroke="#E0FFF2" stroke-width="3" stroke-linecap="round" stroke-linejoin="round"/>
</svg>
